<?xml version="1.0" encoding="utf-8"?>
<!-- Generator: Adobe Illustrator 22.1.0, SVG Export Plug-In . SVG Version: 6.00 Build 0)  -->
<svg version="1.1" id="Ebene_1" xmlns="http://www.w3.org/2000/svg" xmlns:xlink="http://www.w3.org/1999/xlink" x="0px" y="0px"
	 viewBox="0 0 113.4 113.4" style="enable-background:new 0 0 113.4 113.4;" xml:space="preserve">
<style type="text/css">
	.st0{fill:#FFFFFF;}
</style>
<path class="st0" d="M0,0v113.4h113.4V0H0z M56.3,95.6c-14.3,0-23.9-12.4-23.9-30.8c0-17.5,8.2-47.1,26-47.1c7.1,0,14,6.7,14,14.3
	c0,13.1-5.3,19.3-10.3,19.3c-3.9,0-6.1-2.5-6.1-6.7v-0.8c0,0,4.8-5.2,4.8-14.4c0-2.1-0.8-3.4-2.5-3.4C50.9,26,44,48,44,69.3
	c0,13,3.9,17.1,9.8,17.1c11.5,0,19.7-17.9,20.5-26.6c0,0,1.4-0.1,2.2-0.1c1.7,0,4.3,1.3,4.3,7.8C80.9,72.4,75.5,95.6,56.3,95.6z"/>
</svg>
